<svg data-v-423bf9ae="" xmlns="http://www.w3.org/2000/svg" viewBox="0 0 155.7425030145114 60" class="font"><!----><!----><!----><g data-v-423bf9ae="" id="b2594d28-9d9d-4dc8-9c03-a8a9cc953145" fill="white" transform="matrix(5.150214760914251,0,0,5.150214760914251,-2.832616852356992,-16.42918490517696)"><path d="M2.74 13.20L2.74 13.20L2.74 13.20Q2.80 12.80 2.83 12.57L2.83 12.57L2.83 12.57Q2.87 12.33 2.88 12.21L2.88 12.21L2.88 12.21Q2.90 12.10 2.90 12.05L2.90 12.05L2.90 12.05Q2.90 12.01 2.90 11.98L2.90 11.98L2.90 11.98Q2.90 11.79 2.83 11.61L2.83 11.61L2.83 11.61Q2.77 11.42 2.60 11.19L2.60 11.19L2.60 11.19Q2.35 10.84 2.04 10.53L2.04 10.53L2.04 10.53Q1.72 10.22 1.50 9.90L1.50 9.90L1.50 9.90Q1.34 9.67 1.27 9.47L1.27 9.47L1.27 9.47Q1.20 9.27 1.20 9.00L1.20 9.00L1.20 9.00Q1.20 8.95 1.21 8.87L1.21 8.87L1.21 8.87Q1.22 8.79 1.23 8.64L1.23 8.64L1.23 8.64Q1.25 8.50 1.28 8.25L1.28 8.25L1.28 8.25Q1.32 7.99 1.37 7.57L1.37 7.57L1.37 7.57Q1.50 6.68 1.95 6.29L1.95 6.29L1.95 6.29Q2.39 5.91 3.15 5.91L3.15 5.91L3.15 5.91Q3.91 5.91 4.20 6.18L4.20 6.18L4.20 6.18Q4.49 6.45 4.49 7.04L4.49 7.04L4.49 7.04Q4.49 7.10 4.49 7.18L4.49 7.18L4.49 7.18Q4.48 7.27 4.46 7.47L4.46 7.47L4.46 7.47Q4.44 7.67 4.39 8.03L4.39 8.03L4.39 8.03Q4.34 8.39 4.26 8.99L4.26 8.99L3.37 8.99L3.37 8.99Q3.46 8.43 3.50 8.12L3.50 8.12L3.50 8.12Q3.54 7.81 3.56 7.66L3.56 7.66L3.56 7.66Q3.58 7.50 3.58 7.46L3.58 7.46L3.58 7.46Q3.58 7.42 3.58 7.39L3.58 7.39L3.58 7.39Q3.58 7.10 3.43 6.99L3.43 6.99L3.43 6.99Q3.28 6.87 3.04 6.87L3.04 6.87L3.04 6.87Q2.42 6.87 2.31 7.57L2.31 7.57L2.31 7.57Q2.25 7.99 2.22 8.23L2.22 8.23L2.22 8.23Q2.18 8.47 2.17 8.60L2.17 8.60L2.17 8.60Q2.16 8.72 2.16 8.76L2.16 8.76L2.16 8.76Q2.16 8.81 2.16 8.83L2.16 8.83L2.16 8.83Q2.16 9.03 2.22 9.17L2.22 9.17L2.22 9.17Q2.28 9.31 2.44 9.51L2.44 9.51L2.44 9.51Q2.67 9.81 2.98 10.09L2.98 10.09L2.98 10.09Q3.29 10.37 3.51 10.68L3.51 10.68L3.51 10.68Q3.71 10.95 3.79 11.19L3.79 11.19L3.79 11.19Q3.88 11.44 3.88 11.75L3.88 11.75L3.88 11.75Q3.88 11.82 3.87 11.89L3.87 11.89L3.87 11.89Q3.86 11.97 3.84 12.13L3.84 12.13L3.84 12.13Q3.82 12.29 3.79 12.57L3.79 12.57L3.79 12.57Q3.75 12.84 3.70 13.27L3.70 13.27L3.70 13.27Q3.58 14.11 3.13 14.48L3.13 14.48L3.13 14.48Q2.67 14.84 1.86 14.84L1.86 14.84L1.86 14.84Q0.55 14.84 0.55 13.64L0.55 13.64L0.55 13.64Q0.55 13.59 0.55 13.52L0.55 13.52L0.55 13.52Q0.56 13.44 0.58 13.26L0.58 13.26L0.58 13.26Q0.60 13.08 0.65 12.74L0.65 12.74L0.65 12.74Q0.70 12.40 0.78 11.82L0.78 11.82L1.65 11.82L1.65 11.82Q1.57 12.36 1.53 12.67L1.53 12.67L1.53 12.67Q1.48 12.98 1.46 13.13L1.46 13.13L1.46 13.13Q1.44 13.29 1.44 13.34L1.44 13.34L1.44 13.34Q1.44 13.38 1.44 13.40L1.44 13.40L1.44 13.40Q1.44 13.71 1.60 13.80L1.60 13.80L1.60 13.80Q1.76 13.90 2.02 13.90L2.02 13.90L2.02 13.90Q2.63 13.90 2.74 13.20ZM4.55 13.12L5.31 7.64L5.31 7.64Q5.43 6.80 5.89 6.36L5.89 6.36L5.89 6.36Q6.34 5.91 7.15 5.91L7.15 5.91L7.15 5.91Q8.53 5.91 8.53 7.22L8.53 7.22L8.53 7.22Q8.53 7.32 8.52 7.43L8.52 7.43L8.52 7.43Q8.51 7.53 8.50 7.64L8.50 7.64L7.74 13.12L7.74 13.12Q7.62 13.96 7.15 14.40L7.15 14.40L7.15 14.40Q6.69 14.84 5.89 14.84L5.89 14.84L5.89 14.84Q4.51 14.84 4.51 13.55L4.51 13.55L4.51 13.55Q4.51 13.36 4.55 13.12L4.55 13.12ZM6.80 13.09L7.56 7.67L7.56 7.67Q7.57 7.60 7.57 7.55L7.57 7.55L7.57 7.55Q7.57 7.49 7.57 7.43L7.57 7.43L7.57 7.43Q7.57 7.18 7.46 7.04L7.46 7.04L7.46 7.04Q7.34 6.90 7.01 6.90L7.01 6.90L7.01 6.90Q6.62 6.90 6.46 7.11L6.46 7.11L6.46 7.11Q6.30 7.31 6.24 7.67L6.24 7.67L5.49 13.12L5.49 13.12Q5.47 13.19 5.47 13.24L5.47 13.24L5.47 13.24Q5.46 13.30 5.46 13.36L5.46 13.36L5.46 13.36Q5.46 13.61 5.59 13.73L5.59 13.73L5.59 13.73Q5.71 13.86 6.03 13.86L6.03 13.86L6.03 13.86Q6.43 13.86 6.59 13.66L6.59 13.66L6.59 13.66Q6.75 13.47 6.80 13.09L6.80 13.09ZM9.44 14.71L8.47 14.71L10.08 3.19L11.05 3.19L9.44 14.71ZM13.50 14.71L12.61 14.71L12.61 14.71Q12.60 14.67 12.60 14.53L12.60 14.53L12.60 14.53Q12.60 14.46 12.61 14.38L12.61 14.38L12.61 14.38Q12.61 14.29 12.63 14.20L12.63 14.20L12.63 14.20Q12.42 14.50 12.14 14.67L12.14 14.67L12.14 14.67Q11.86 14.84 11.49 14.84L11.49 14.84L11.49 14.84Q10.98 14.84 10.70 14.60L10.70 14.60L10.70 14.60Q10.42 14.35 10.42 13.82L10.42 13.82L10.42 13.82Q10.42 13.73 10.42 13.65L10.42 13.65L10.42 13.65Q10.43 13.57 10.44 13.47L10.44 13.47L10.63 12.19L10.63 12.19Q10.71 11.56 10.94 11.14L10.94 11.14L10.94 11.14Q11.17 10.71 11.52 10.42L11.52 10.42L11.52 10.42Q11.86 10.12 12.29 9.92L12.29 9.92L12.29 9.92Q12.73 9.72 13.23 9.52L13.23 9.52L13.50 7.63L13.50 7.63Q13.51 7.56 13.51 7.51L13.51 7.51L13.51 7.51Q13.51 7.46 13.51 7.41L13.51 7.41L13.51 7.41Q13.51 7.14 13.38 7.01L13.38 7.01L13.38 7.01Q13.26 6.87 12.96 6.87L12.96 6.87L12.96 6.87Q12.59 6.87 12.44 7.07L12.44 7.07L12.44 7.07Q12.29 7.27 12.24 7.63L12.24 7.63L11.97 9.45L11.12 9.45L11.38 7.62L11.38 7.62Q11.51 6.76 11.92 6.34L11.92 6.34L11.92 6.34Q12.33 5.91 13.13 5.91L13.13 5.91L13.13 5.91Q14.45 5.91 14.45 7.20L14.45 7.20L14.45 7.20Q14.45 7.31 14.44 7.41L14.44 7.41L14.44 7.41Q14.43 7.50 14.42 7.62L14.42 7.62L13.55 13.72L13.55 13.72Q13.52 13.94 13.50 14.15L13.50 14.15L13.50 14.15Q13.48 14.35 13.48 14.52L13.48 14.52L13.48 14.52Q13.48 14.67 13.50 14.71L13.50 14.71ZM12.68 13.36L13.12 10.29L13.12 10.29Q12.67 10.44 12.39 10.63L12.39 10.63L12.39 10.63Q12.11 10.81 11.94 11.04L11.94 11.04L11.94 11.04Q11.77 11.27 11.69 11.57L11.69 11.57L11.69 11.57Q11.61 11.87 11.55 12.26L11.55 12.26L11.42 13.19L11.42 13.19Q11.41 13.23 11.41 13.37L11.41 13.37L11.41 13.37Q11.41 13.90 11.98 13.90L11.98 13.90L11.98 13.90Q12.19 13.90 12.38 13.78L12.38 13.78L12.38 13.78Q12.57 13.65 12.68 13.36L12.68 13.36ZM15.41 14.71L14.45 14.71L15.65 6.05L16.46 6.05L16.46 6.05Q16.46 6.37 16.42 6.68L16.42 6.68L16.42 6.68Q16.66 6.30 16.94 6.13L16.94 6.13L16.94 6.13Q17.22 5.96 17.57 5.96L17.57 5.96L17.57 5.96Q17.74 5.96 17.86 6.02L17.86 6.02L17.71 7.10L17.71 7.10Q17.64 7.04 17.52 7.02L17.52 7.02L17.52 7.02Q17.40 7 17.29 7L17.29 7L17.29 7Q17.07 7 16.84 7.11L16.84 7.11L16.84 7.11Q16.60 7.21 16.42 7.52L16.42 7.52L15.41 14.71ZM19.50 13.20L19.50 13.20L19.50 13.20Q19.56 12.80 19.59 12.57L19.59 12.57L19.59 12.57Q19.63 12.33 19.64 12.21L19.64 12.21L19.64 12.21Q19.66 12.10 19.66 12.05L19.66 12.05L19.66 12.05Q19.66 12.01 19.66 11.98L19.66 11.98L19.66 11.98Q19.66 11.79 19.59 11.61L19.59 11.61L19.59 11.61Q19.53 11.42 19.36 11.19L19.36 11.19L19.36 11.19Q19.11 10.84 18.79 10.53L18.79 10.53L18.79 10.53Q18.48 10.22 18.26 9.90L18.26 9.90L18.26 9.90Q18.10 9.67 18.03 9.47L18.03 9.47L18.03 9.47Q17.96 9.27 17.96 9.00L17.96 9.00L17.96 9.00Q17.96 8.95 17.97 8.87L17.97 8.87L17.97 8.87Q17.98 8.79 17.99 8.64L17.99 8.64L17.99 8.64Q18.00 8.50 18.04 8.25L18.04 8.25L18.04 8.25Q18.07 7.99 18.13 7.57L18.13 7.57L18.13 7.57Q18.26 6.68 18.70 6.29L18.70 6.29L18.70 6.29Q19.15 5.91 19.91 5.91L19.91 5.91L19.91 5.91Q20.66 5.91 20.96 6.18L20.96 6.18L20.96 6.18Q21.25 6.45 21.25 7.04L21.25 7.04L21.25 7.04Q21.25 7.10 21.24 7.18L21.24 7.18L21.24 7.18Q21.24 7.27 21.22 7.47L21.22 7.47L21.22 7.47Q21.20 7.67 21.15 8.03L21.15 8.03L21.15 8.03Q21.10 8.39 21.01 8.99L21.01 8.99L20.13 8.99L20.13 8.99Q20.22 8.43 20.26 8.12L20.26 8.12L20.26 8.12Q20.30 7.81 20.32 7.66L20.32 7.66L20.32 7.66Q20.34 7.50 20.34 7.46L20.34 7.46L20.34 7.46Q20.34 7.42 20.34 7.39L20.34 7.39L20.34 7.39Q20.34 7.10 20.19 6.99L20.19 6.99L20.19 6.99Q20.03 6.87 19.80 6.87L19.80 6.87L19.80 6.87Q19.18 6.87 19.07 7.57L19.07 7.57L19.07 7.57Q19.01 7.99 18.98 8.23L18.98 8.23L18.98 8.23Q18.94 8.47 18.93 8.60L18.93 8.60L18.93 8.60Q18.91 8.72 18.91 8.76L18.91 8.76L18.91 8.76Q18.91 8.81 18.91 8.83L18.91 8.83L18.91 8.83Q18.91 9.03 18.98 9.17L18.98 9.17L18.98 9.17Q19.04 9.31 19.19 9.51L19.19 9.51L19.19 9.51Q19.43 9.81 19.74 10.09L19.74 10.09L19.74 10.09Q20.05 10.37 20.27 10.68L20.27 10.68L20.27 10.68Q20.47 10.95 20.55 11.19L20.55 11.19L20.55 11.19Q20.64 11.44 20.64 11.75L20.64 11.75L20.64 11.75Q20.64 11.82 20.63 11.89L20.63 11.89L20.63 11.89Q20.62 11.97 20.60 12.13L20.60 12.13L20.60 12.13Q20.58 12.29 20.54 12.57L20.54 12.57L20.54 12.57Q20.51 12.84 20.45 13.27L20.45 13.27L20.45 13.27Q20.34 14.11 19.89 14.48L19.89 14.48L19.89 14.48Q19.43 14.84 18.62 14.84L18.62 14.84L18.62 14.84Q17.30 14.84 17.30 13.64L17.30 13.64L17.30 13.64Q17.30 13.59 17.31 13.52L17.31 13.52L17.31 13.52Q17.32 13.44 17.34 13.26L17.34 13.26L17.34 13.26Q17.36 13.08 17.41 12.74L17.41 12.74L17.41 12.74Q17.46 12.40 17.54 11.82L17.54 11.82L18.41 11.82L18.41 11.82Q18.33 12.36 18.28 12.67L18.28 12.67L18.28 12.67Q18.24 12.98 18.22 13.13L18.22 13.13L18.22 13.13Q18.20 13.29 18.20 13.34L18.20 13.34L18.20 13.34Q18.20 13.38 18.20 13.40L18.20 13.40L18.20 13.40Q18.20 13.71 18.36 13.80L18.36 13.80L18.36 13.80Q18.52 13.90 18.77 13.90L18.77 13.90L18.77 13.90Q19.39 13.90 19.50 13.20ZM23.27 14L23.16 14.77L23.16 14.77Q23.09 14.80 22.95 14.82L22.95 14.82L22.95 14.82Q22.81 14.84 22.69 14.84L22.69 14.84L22.69 14.84Q22.02 14.84 21.71 14.48L21.71 14.48L21.71 14.48Q21.39 14.13 21.39 13.48L21.39 13.48L21.39 13.48Q21.39 13.37 21.39 13.27L21.39 13.27L21.39 13.27Q21.39 13.16 21.42 13.05L21.42 13.05L22.29 6.90L21.88 6.90L21.99 6.05L22.40 6.05L22.79 3.30L23.76 3.30L23.37 6.05L24.35 6.05L24.23 6.90L23.25 6.90L22.39 13.05L22.39 13.05Q22.37 13.13 22.36 13.21L22.36 13.21L22.36 13.21Q22.36 13.29 22.36 13.36L22.36 13.36L22.36 13.36Q22.36 13.72 22.53 13.87L22.53 13.87L22.53 13.87Q22.71 14.01 23.09 14.01L23.09 14.01L23.09 14.01Q23.13 14.01 23.18 14.01L23.18 14.01L23.18 14.01Q23.23 14.01 23.27 14L23.27 14ZM24.81 14.71L23.84 14.71L25.05 6.05L25.86 6.05L25.86 6.05Q25.86 6.37 25.82 6.68L25.82 6.68L25.82 6.68Q26.05 6.30 26.33 6.13L26.33 6.13L26.33 6.13Q26.61 5.96 26.96 5.96L26.96 5.96L26.96 5.96Q27.13 5.96 27.26 6.02L27.26 6.02L27.10 7.10L27.10 7.10Q27.03 7.04 26.91 7.02L26.91 7.02L26.91 7.02Q26.80 7 26.68 7L26.68 7L26.68 7Q26.46 7 26.23 7.11L26.23 7.11L26.23 7.11Q26.00 7.21 25.82 7.52L25.82 7.52L24.81 14.71ZM26.81 13.12L27.57 7.64L27.57 7.64Q27.69 6.80 28.15 6.36L28.15 6.36L28.15 6.36Q28.60 5.91 29.41 5.91L29.41 5.91L29.41 5.91Q30.79 5.91 30.79 7.22L30.79 7.22L30.79 7.22Q30.79 7.32 30.78 7.43L30.78 7.43L30.78 7.43Q30.77 7.53 30.76 7.64L30.76 7.64L30.00 13.12L30.00 13.12Q29.88 13.96 29.41 14.40L29.41 14.40L29.41 14.40Q28.95 14.84 28.15 14.84L28.15 14.84L28.15 14.84Q26.77 14.84 26.77 13.55L26.77 13.55L26.77 13.55Q26.77 13.36 26.81 13.12L26.81 13.12ZM29.06 13.09L29.82 7.67L29.82 7.67Q29.83 7.60 29.83 7.55L29.83 7.55L29.83 7.55Q29.83 7.49 29.83 7.43L29.83 7.43L29.83 7.43Q29.83 7.18 29.71 7.04L29.71 7.04L29.71 7.04Q29.60 6.90 29.27 6.90L29.27 6.90L29.27 6.90Q28.88 6.90 28.72 7.11L28.72 7.11L28.72 7.11Q28.56 7.31 28.50 7.67L28.50 7.67L27.75 13.12L27.75 13.12Q27.73 13.19 27.73 13.24L27.73 13.24L27.73 13.24Q27.72 13.30 27.72 13.36L27.72 13.36L27.72 13.36Q27.72 13.61 27.85 13.73L27.85 13.73L27.85 13.73Q27.97 13.86 28.29 13.86L28.29 13.86L28.29 13.86Q28.69 13.86 28.85 13.66L28.85 13.66L28.85 13.66Q29.01 13.47 29.06 13.09L29.06 13.09Z"></path></g><!----><!----></svg>